# xmcd
#
# Track frame offsets: 
#        150
#        13065
#        26391
#        40669
#        57792
#        70871
#        81728
#        91763
#        100565
#        120049
#        132646
#        143351
#
# Disc length: 2075 seconds
#
# Revision: 0
# Processed by: cddbd v1.5.2PL0 Copyright (c) Steve Scherf et al.
# Submitted via: ExactAudioCopy v1.3
#
DISCID=8c08190c
DTITLE=The Carter Family - Liberty (The Carter Family Album)
DYEAR=1962
DGENRE=Country
TTITLE0=Bury Me Beneath The Willow
TTITLE1=The Little Black Train
TTITLE2=Picture On The Wall
TTITLE3=Little Moses
TTITLE4=Waves On The Sea
TTITLE5=Maple On The Hill
TTITLE6=Black Jack David
TTITLE7=Anchored In Love
TTITLE8=Sinking In The Lonesome Sea
TTITLE9=We Parted By The Riverside
TTITLE10=Just Another Broken Heart
TTITLE11=I'll Be All Smiles Tonight
EXTD=
EXTT0=
EXTT1=
EXTT2=
EXTT3=
EXTT4=
EXTT5=
EXTT6=
EXTT7=
EXTT8=
EXTT9=
EXTT10=
EXTT11=
PLAYORDER=
